:SAMPLES-PER-SECOND 30
:FULLY-SPECIFIED
:DEGREES
157
root  -0.0643056 40.6154 -2.22228 9.65498 -65.3615 -0.159958
RightUpLeg  -11.6169 -2.49975 0.652644
RightLeg  3.41839 -42.5717 1.34405
RightFoot  -0.318314 0.0414935 -0.452176
RightToes  -3.11842e-008 1.75238e-005 3.56266e-009
Spine  17.5831 4.45992 9.0079
Spine1  14.8592 5.23647 1.89175
HEad  -17.6847 -17.7167 5.55675
LeftShoulder1  3.62739 -9.92825 -20.5968
LeftArm  -1.59079 -53.4809 -84.7916
LeftForeArm  78.9419 -13.9862 -0.319864
LeftHand  -1.13571 -0.873516 21.062
RightShoulder  6.5943 14.3711 30.9226
RightArm  -26.642 48.7006 58.909
RightForeArm  -32.7415 43.0891 12.2608
RightHand  -1.52675 6.56862 -15.0642
LeftUpLeg  -16.6522 -1.67845 4.30294
LeftLeg  -2.84404 -6.55632 0.463557
LeftFoot  10.189 0.797974 -4.52392
LeftToes  4.7713e-008 1.46693e-008 1.32589e-009
158
root  -0.179361 40.6329 -2.15912 9.31285 -65.2744 -0.201202
RightUpLeg  -11.0443 -2.55868 0.635572
RightLeg  3.6314 -42.4896 1.15965
RightFoot  -0.490199 0.00719803 -0.110467
RightToes  -3.11842e-008 1.75238e-005 3.56266e-009
Spine  16.3771 4.15343 8.12486
Spine1  15.5756 4.73775 1.8263
HEad  -17.7357 -17.5717 5.02487
LeftShoulder1  3.7261 -10.1571 -20.886
LeftArm  -0.883795 -53.5214 -84.8547
LeftForeArm  79.3719 -14.4994 -0.666798
LeftHand  -1.23981 -1.48764 20.9527
RightShoulder  6.4513 14.1747 30.5221
RightArm  -27.193 48.0384 58.4259
RightForeArm  -32.1722 43.5442 12.4214
RightHand  -1.56421 6.34217 -15.6987
LeftUpLeg  -16.166 -1.62032 4.21941
LeftLeg  -2.56562 -6.65983 0.44643
LeftFoot  9.82805 0.755338 -4.36278
LeftToes  4.7713e-008 1.46693e-008 1.32589e-009
159
root  -0.308081 40.6571 -2.04807 8.44078 -65.9477 0.091507
RightUpLeg  -10.3165 -2.81873 0.399136
RightLeg  4.03074 -41.5852 0.972806
RightFoot  -0.724422 -0.0210712 0.173129
RightToes  -3.11842e-008 1.75238e-005 3.56266e-009
Spine  15.4183 3.76658 6.84822
Spine1  15.6255 4.23612 1.52108
HEad  -17.3156 -16.6876 3.51707
LeftShoulder1  3.73191 -10.101 -21.0514
LeftArm  0.167434 -53.5646 -85.6516
LeftForeArm  78.9965 -14.6692 -0.915237
LeftHand  -1.19085 -1.17408 21.0736
RightShoulder  6.51845 14.1424 30.9754
RightArm  -28.1439 46.9931 57.7877
RightForeArm  -31.4742 44.9294 12.9594
RightHand  -1.65446 6.98548 -15.7531
LeftUpLeg  -15.2811 -1.5578 4.03719
LeftLeg  -2.21066 -6.13229 0.357587
LeftFoot  9.28733 0.684642 -4.07307
LeftToes  4.7713e-008 1.46693e-008 1.32589e-009
160
root  -0.487247 40.6847 -1.89858 7.84943 -67.4017 0.0916443
RightUpLeg  -9.40006 -2.62269 0.388357
RightLeg  3.94112 -40.3572 0.80619
RightFoot  -0.797925 -0.0424138 0.400419
RightToes  -3.11842e-008 1.75238e-005 3.56266e-009
Spine  13.9073 3.48861 5.38101
Spine1  15.5691 3.85186 1.17546
HEad  -16.7962 -15.5064 2.06277
LeftShoulder1  3.73498 -10.1238 -21.0261
LeftArm  1.11502 -53.2724 -86.3209
LeftForeArm  78.3825 -15.3129 -1.2227
LeftHand  -1.2441 -1.36274 21.3992
RightShoulder  6.59107 14.1048 31.4726
RightArm  -29.2198 45.7129 56.1794
RightForeArm  -30.9189 46.6102 13.6837
RightHand  -1.56736 6.71665 -15.2556
LeftUpLeg  -14.421 -1.25503 4.03443
LeftLeg  -1.35007 -5.12597 0.194088
LeftFoot  8.24744 0.611863 -3.83562
LeftToes  4.7713e-008 1.46693e-008 1.32589e-009
161
root  -0.705344 40.7214 -1.69707 7.39333 -69.3372 -0.310593
RightUpLeg  -7.99525 -2.55418 0.361649
RightLeg  3.40627 -38.5706 1.13357
RightFoot  -0.865316 -0.0628192 0.620678
RightToes  -3.11842e-008 1.75238e-005 3.56266e-009
Spine  12.2402 3.23309 3.65542
Spine1  15.457 3.3072 1.44135
HEad  -16.038 -13.7054 0.412129
LeftShoulder1  3.84273 -10.1928 -21.7172
LeftArm  2.91786 -52.9996 -86.5439
LeftForeArm  77.3033 -16.3896 -1.84294
LeftHand  -1.24538 -1.30016 21.6157
RightShoulder  6.50978 13.9411 31.3595
RightArm  -31.2082 43.7214 55.5563
RightForeArm  -27.1884 49.9854 15.1564
RightHand  -1.3532 5.74987 -14.345
LeftUpLeg  -13.2556 -0.836581 4.12456
LeftLeg  -0.221925 -3.84115 0.101766
LeftFoot  6.91133 0.526677 -3.53788
LeftToes  4.7713e-008 1.46693e-008 1.32589e-009
162
root  -0.949364 40.7523 -1.45106 6.71748 -71.6422 -0.686417
RightUpLeg  -6.45017 -2.54072 0.25553
RightLeg  3.16351 -36.3511 1.21571
RightFoot  -0.954804 -0.0930439 0.952224
RightToes  -3.11842e-008 1.75238e-005 3.56266e-009
Spine  10.3789 2.75694 2.1503
Spine1  15.4532 2.72873 1.27249
HEad  -14.6747 -11.592 -0.544389
LeftShoulder1  3.87241 -10.3164 -21.6787
LeftArm  5.15176 -52.9514 -87.3491
LeftForeArm  76.3991 -17.5738 -2.14615
LeftHand  -1.21986 -1.08495 21.8601
RightShoulder  6.43038 13.6426 31.5509
RightArm  -32.5083 41.9628 54.0618
RightForeArm  -23.7866 53.7857 17.1727
RightHand  -1.25161 5.42923 -13.6655
LeftUpLeg  -11.7613 -0.477266 4.10976
LeftLeg  0.933192 -2.13417 0.0831871
LeftFoot  5.45021 0.439945 -3.20898
LeftToes  4.7713e-008 1.46693e-008 1.32589e-009
163
root  -1.21485 40.7858 -1.19263 5.73056 -74.5303 -0.636078
RightUpLeg  -5.08455 -2.43149 0.043111
RightLeg  2.94378 -33.8696 1.07847
RightFoot  -1.02293 -0.112511 1.16391
RightToes  -3.11842e-008 1.75238e-005 3.56266e-009
Spine  8.18402 2.21462 0.416631
Spine1  15.4412 2.17485 0.893023
HEad  -12.8949 -9.13551 -1.41379
LeftShoulder1  3.76014 -10.2761 -20.8975
LeftArm  8.2733 -53.1597 -88.2647
LeftForeArm  74.3831 -19.0739 -2.33093
LeftHand  -1.26688 -1.25514 22.1203
RightShoulder  6.42719 13.483 31.889
RightArm  -33.9375 40.4974 52.1809
RightForeArm  -20.5345 57.8695 19.9074
RightHand  -1.21225 5.33216 -13.3269
LeftUpLeg  -9.94754 -0.120176 3.98744
LeftLeg  1.50717 0.156097 0.0640526
LeftFoot  4.14879 0.403058 -3.14689
LeftToes  4.7713e-008 1.46693e-008 1.32589e-009
164
root  -1.50296 40.8182 -0.937314 5.13295 -77.3502 -1.10597
RightUpLeg  -3.29589 -2.18445 -0.0416401
RightLeg  2.0758 -31.4835 1.24747
RightFoot  -0.961517 -0.115637 1.18496
RightToes  -3.11842e-008 1.75238e-005 3.56266e-009
Spine  6.26624 1.43246 -1.02025
Spine1  14.9621 1.41736 0.546974
HEad  -10.945 -5.89974 -1.73239
LeftShoulder1  3.68917 -10.0849 -20.7498
LeftArm  13.7323 -53.2518 -89.4545
LeftForeArm  71.8752 -21.1938 -2.3557
LeftHand  -1.27298 -1.1167 22.6753
RightShoulder  6.45778 13.3209 32.4397
RightArm  -36.0266 39.2177 49.502
RightForeArm  -15.9066 62.3115 23.7781
RightHand  -1.49391 6.69696 -14.6039
LeftUpLeg  -7.88942 0.409262 3.9847
LeftLeg  1.8562 2.2293 0.0091853
LeftFoot  2.92955 0.343676 -2.88892
LeftToes  4.7713e-008 1.46693e-008 1.32589e-009
165
root  -1.79839 40.8387 -0.702689 3.66202 -80.1813 -0.680542
RightUpLeg  -1.66233 -2.1766 -0.390486
RightLeg  1.5995 -28.7577 1.23789
RightFoot  -1.13856 -0.124855 1.31183
RightToes  -3.11842e-008 1.75238e-005 3.56266e-009
Spine  4.66699 0.81485 -3.11978
Spine1  14.3831 0.509697 1.31737
HEad  -9.58107 -2.53576 -2.64399
LeftShoulder1  3.63569 -9.97403 -20.566
LeftArm  21.3896 -53.538 -91.8896
LeftForeArm  68.2359 -23.9066 -2.15541
LeftHand  -1.21617 -0.71371 23.0945
RightShoulder  6.21208 12.869 31.9997
RightArm  -38.5463 38.4146 47.0602
RightForeArm  -9.79282 67.1097 29.8725
RightHand  -1.31279 6.04167 -13.5849
LeftUpLeg  -5.71491 0.927295 3.83534
LeftLeg  1.93795 4.40754 -0.202033
LeftFoot  1.89026 0.29929 -2.67685
LeftToes  4.7713e-008 1.46693e-008 1.32589e-009
166
root  -2.09547 40.8573 -0.467435 2.66284 -82.8065 -0.441696
RightUpLeg  -0.424575 -2.06243 -0.65985
RightLeg  1.29912 -26.2559 1.01902
RightFoot  -1.18052 -0.135702 1.43486
RightToes  -3.11842e-008 1.75238e-005 3.56266e-009
Spine  3.63523 0.160598 -4.9895
Spine1  12.9419 -0.471283 2.35619
HEad  -8.16624 0.912461 -3.06441
LeftShoulder1  3.62634 -9.84875 -20.7609
LeftArm  30.4778 -53.854 -95.7811
LeftForeArm  64.421 -26.7104 -2.56058
LeftHand  -1.09495 0.0360232 23.6269
RightShoulder  5.92353 12.3584 31.4084
RightArm  -41.5794 37.5476 44.1203
RightForeArm  1.84547 72.2012 40.5132
RightHand  -1.25934 6.12584 -12.9651
LeftUpLeg  -3.78311 1.39134 3.70516
LeftLeg  1.75985 6.50548 -0.44959
LeftFoot  0.965005 0.260174 -2.47574
LeftToes  4.7713e-008 1.46693e-008 1.32589e-009
167
root  -2.38167 40.8695 -0.236376 4.29034 -85.0579 -2.74072
RightUpLeg  0.821931 -1.95417 -0.777822
RightLeg  0.745829 -24.1209 1.03473
RightFoot  -1.11433 -0.168646 1.79902
RightToes  -3.11842e-008 1.75238e-005 3.56266e-009
Spine  2.38409 -0.868142 -6.12677
Spine1  12.3561 -1.62017 2.77786
HEad  -7.65377 4.66036 -3.12348
LeftShoulder1  3.55053 -9.90981 -20.0238
LeftArm  39.1133 -54.1921 -100.188
LeftForeArm  63.3988 -31.2428 -3.57492
LeftHand  -1.30525 -0.837412 24.2514
RightShoulder  5.67176 11.8504 30.9984
RightArm  -44.8109 37.5152 40.9059
RightForeArm  20.8499 76.4162 59.1609
RightHand  -1.30251 6.82798 -12.6515
LeftUpLeg  -2.26717 1.71756 3.68301
LeftLeg  1.97595 8.31397 -0.415515
LeftFoot  -0.0494786 0.260143 -2.61928
LeftToes  4.7713e-008 1.46693e-008 1.32589e-009
168
root  -2.64381 40.8538 -0.0146282 16.7191 -86.9579 -15.5079
RightUpLeg  1.59455 -1.75681 -0.674786
RightLeg  0.353155 -22.4014 1.01797
RightFoot  -1.12406 -0.200146 2.15208
RightToes  -3.11842e-008 1.75238e-005 3.56266e-009
Spine  1.17693 -2.07039 -7.83264
Spine1  12.0345 -3.35721 4.73914
HEad  -7.9191 8.61674 -4.37053
LeftShoulder1  3.61848 -10.0795 -20.2017
LeftArm  46.1321 -54.7008 -103.74
LeftForeArm  62.8362 -37.5433 -5.04808
LeftHand  -1.41029 -1.11232 25.0319
RightShoulder  5.1025 10.9482 29.3292
RightArm  -47.8334 38.5343 38.7773
RightForeArm  48.7377 78.324 85.8294
RightHand  -1.24073 6.49049 -12.4016
LeftUpLeg  -1.572 2.04877 3.80469
LeftLeg  2.90227 9.81746 -0.221334
LeftFoot  -1.12084 0.183997 -1.98583
LeftToes  4.7713e-008 1.46693e-008 1.32589e-009
169
root  -2.89073 40.8352 0.177261 13.8762 -88.9655 -12.9422
RightUpLeg  2.24442 -1.61579 -0.613096
RightLeg  -0.0138182 -20.7509 1.02239
RightFoot  -1.17875 -0.216958 2.34748
RightToes  -3.11842e-008 1.75238e-005 3.56266e-009
Spine  0.899411 -3.34244 -10.1385
Spine1  10.9223 -5.37402 7.60078
HEad  -8.80789 13.0724 -6.49283
LeftShoulder1  3.77124 -10.4326 -20.6575
LeftArm  50.4266 -55.2512 -106.154
LeftForeArm  65.9054 -44.0167 -6.68614
LeftHand  -1.68849 -2.06473 26.1638
RightShoulder  4.4873 10.0368 27.1358
RightArm  -50.6199 39.4532 36.8961
RightForeArm  73.5864 77.6178 110.286
RightHand  -1.29318 6.83734 -12.5576
LeftUpLeg  -0.980002 2.31468 3.87817
LeftLeg  3.83233 11.422 0.0500848
LeftFoot  -2.18247 0.162637 -1.8693
LeftToes  4.7713e-008 1.46693e-008 1.32589e-009
170
root  -3.07574 40.8071 0.343427 126.825 -87.924 -125.873
RightUpLeg  2.16705 -1.42741 -0.586046
RightLeg  0.125557 -18.6932 0.88913
RightFoot  -1.33787 -0.230488 2.53547
RightToes  -3.11842e-008 1.75238e-005 3.56266e-009
Spine  1.57742 -4.66189 -11.503
Spine1  8.71304 -7.01172 9.068
HEad  -9.45462 17.4509 -7.44521
LeftShoulder1  3.66604 -10.3491 -20.0094
LeftArm  53.262 -55.5533 -108.129
LeftForeArm  67.6872 -50.4537 -8.74243
LeftHand  -1.66963 -1.80569 26.7578
RightShoulder  4.32856 9.74025 26.653
RightArm  -53.6439 40.1176 33.9836
RightForeArm  90.8457 75.5578 126.949
RightHand  -1.40082 7.82985 -12.5953
LeftUpLeg  -0.688429 2.49872 3.87894
LeftLeg  4.65069 13.563 0.412003
LeftFoot  -3.10548 0.150734 -1.8318
LeftToes  4.7713e-008 1.46693e-008 1.32589e-009
